<svg version="1.1" id="Layer_1" xmlns="http://www.w3.org/2000/svg" xmlns:xlink="http://www.w3.org/1999/xlink" x="0px" y="0px"
	 width="100%" viewBox="0 0 992 992" enable-background="new 0 0 992 992" xml:space="preserve">
<path fill="#000000" opacity="1.000000" stroke="none" 
	d="
M92.690338,482.986938 
	C92.314445,452.593811 94.032150,422.912323 102.825157,394.095886 
	C114.554451,355.656647 135.712463,323.730774 168.824707,300.337555 
	C186.562897,287.805847 206.779083,281.067108 227.774475,276.787598 
	C256.577118,270.916687 284.242401,274.798767 310.816864,287.548889 
	C323.931519,293.841187 335.807373,302.075378 348.167267,309.563843 
	C352.869202,312.412567 357.777466,314.904846 363.025055,316.620239 
	C371.213013,319.296692 375.555725,317.188782 378.594330,309.070770 
	C381.930969,300.156433 383.958527,290.896332 385.659729,281.561584 
	C386.406433,277.464294 388.655731,275.564575 392.895966,275.634003 
	C396.590271,275.694489 398.373779,277.071991 398.427063,280.964539 
	C398.497559,286.118927 399.194244,291.265686 399.242126,296.419281 
	C399.530243,327.407166 400.275085,358.406372 399.711273,389.380737 
	C399.378174,407.681030 400.356140,426.031921 398.499207,444.304535 
	C398.263092,446.627991 397.779877,448.631592 395.108368,449.130615 
	C392.280792,449.658752 389.727325,449.199219 388.122101,446.543793 
	C387.446350,445.425934 386.987732,444.135803 386.641266,442.866394 
	C383.970978,433.082428 381.533569,423.231232 378.684357,413.500336 
	C369.552063,382.310699 357.564484,352.429382 336.768219,326.927094 
	C322.796509,309.793762 304.759369,299.471771 282.563629,297.478973 
	C263.560577,295.772858 249.987900,305.028290 240.173767,320.442627 
	C227.146149,340.904205 221.710297,363.925018 217.128677,387.445038 
	C209.828552,424.920715 210.891800,462.725311 211.577347,500.465027 
	C212.163971,532.759216 216.634460,564.787476 223.517380,596.363953 
	C226.679596,610.871033 231.642471,624.806519 241.832428,636.317749 
	C252.707367,648.602844 264.861267,649.313416 279.652222,644.388916 
	C288.915771,641.304871 293.654236,632.612000 295.706390,622.919189 
	C297.961151,612.269714 298.284760,601.420471 298.527802,590.645691 
	C299.008545,569.332336 299.120178,547.993225 297.593842,526.702576 
	C297.214142,521.406189 296.426910,516.105896 295.378510,510.897675 
	C293.324188,500.692169 287.898102,496.089874 277.479614,495.371155 
	C270.837860,494.912933 264.181610,494.666992 257.538910,494.220947 
	C251.367050,493.806549 248.918396,491.858398 248.317657,487.144531 
	C247.485458,480.614502 249.107925,478.827271 255.708969,478.669647 
	C307.352234,477.436584 359.001892,477.663666 410.648743,478.183868 
	C419.439209,478.272400 428.297058,478.215302 437.046387,479.671387 
	C442.315765,480.548279 445.277161,485.102142 443.804932,490.226654 
	C443.139191,492.544098 441.496704,493.082123 439.323914,493.420929 
	C432.752411,494.445648 426.069214,494.436646 419.548950,496.064423 
	C409.438141,498.588531 404.940002,503.503448 404.246246,514.094727 
	C403.767639,521.401367 403.437439,528.729248 403.382355,536.050110 
	C403.154358,566.376709 403.101196,596.704590 402.884399,627.031311 
	C402.815338,636.687012 402.486481,646.341980 402.171722,655.993896 
	C402.080292,658.796753 402.113281,662.149353 398.643188,662.946106 
	C394.949707,663.793945 392.858337,661.230957 391.380951,658.167969 
	C386.994720,649.074219 381.234650,641.024414 373.623230,634.303589 
	C360.171204,622.425537 344.748779,620.772888 329.591370,630.302795 
	C317.615875,637.832214 306.165802,646.199829 294.160645,653.678711 
	C279.707001,662.683044 263.527374,666.463623 246.689377,667.261414 
	C233.364380,667.892761 220.028793,667.436768 207.017380,664.061707 
	C189.348328,659.478394 173.535217,651.052185 159.694031,639.289795 
	C128.495605,612.777039 110.000816,578.396973 100.156929,539.258911 
	C95.579468,521.059509 92.951950,502.374054 92.690338,482.986938 
M135.819443,469.354553 
	C132.130356,463.549927 124.679268,461.522980 118.972359,464.771637 
	C115.731834,466.616333 113.853889,472.586823 115.498528,475.815948 
	C116.779755,478.331573 122.640373,478.603699 124.187859,476.179810 
	C124.961617,474.967773 124.995285,473.578705 124.135422,472.434174 
	C123.058472,471.000641 121.826431,471.779694 120.611542,472.436188 
	C119.366074,473.109222 119.143829,475.178680 117.201088,474.925537 
	C114.985664,472.502655 115.848793,470.466095 117.835716,468.436493 
	C123.114059,463.044861 128.662430,463.498383 136.234116,470.753571 
	C138.099701,475.672638 138.579987,480.604523 137.627731,485.896606 
	C136.686096,491.129761 137.039795,496.453644 138.805756,501.643738 
	C142.720963,513.150391 152.929169,520.078857 163.294708,517.723877 
	C157.923233,517.922485 153.340363,516.036621 149.176712,512.863892 
	C136.583023,503.267578 135.273773,485.083344 146.567123,476.014893 
	C151.658920,471.926300 161.755905,474.038452 164.783661,479.825592 
	C167.009445,484.079834 164.308853,488.447906 158.836304,489.138519 
	C158.486374,488.092102 158.196045,486.978882 157.747284,485.933685 
	C156.854874,483.855316 155.112564,483.915436 153.604767,484.850006 
	C152.022827,485.830475 152.202118,487.387054 153.415604,488.691345 
	C155.647888,491.090546 158.028397,492.943024 161.705093,491.772888 
	C164.997375,490.725067 166.662888,488.623383 166.862259,485.250305 
	C167.178116,479.906158 164.915909,476.144623 160.338074,473.296173 
	C156.095200,470.656097 152.212982,471.155334 148.081375,473.207031 
	C145.336548,474.570038 143.431808,477.430328 140.158569,477.938049 
	C137.916840,475.546509 139.011047,471.682495 135.819443,469.354553 
M189.428238,639.017395 
	C197.340576,645.935547 206.673157,649.876099 217.156998,652.092285 
	C213.504181,646.867004 211.311249,641.170593 210.565475,634.825867 
	C208.748276,635.292419 207.779648,635.489075 206.844193,635.789246 
	C196.849304,638.996033 189.634003,636.179626 184.634445,627.101257 
	C181.474518,621.363403 183.073166,614.376526 187.993454,612.420410 
	C191.109329,611.181702 194.756668,612.781250 195.647186,615.887878 
	C196.627670,619.308350 194.629135,620.713989 191.717606,621.579529 
	C190.180618,622.036438 188.349380,621.805176 187.174423,623.225159 
	C188.591080,628.891541 192.474106,632.923828 197.223480,633.704163 
	C203.721481,634.771790 208.391830,632.699829 211.597458,627.181885 
	C220.737732,611.448242 212.281418,598.730774 200.354416,591.815735 
	C195.198654,588.826538 188.616287,588.422729 183.108582,591.968811 
	C174.349899,597.608032 170.294067,610.194702 172.945206,620.295410 
	C175.269409,629.150452 181.605194,634.191406 189.428238,639.017395 
M335.753510,572.670837 
	C331.145721,569.824341 326.374054,567.552856 320.748810,569.090088 
	C307.423798,572.731506 301.021088,587.832275 307.541016,600.150635 
	C310.765167,606.242126 318.825989,609.493774 325.049652,607.213379 
	C330.601898,605.179016 333.250031,599.020691 331.703522,591.739746 
	C330.853271,587.736816 326.980774,585.317383 322.959961,586.606750 
	C319.765564,587.630981 317.430267,589.469360 319.056976,593.238220 
	C320.582367,593.759155 321.347290,592.989502 322.187439,592.501221 
	C324.348755,591.245056 326.017181,591.912781 327.295258,593.848389 
	C328.756866,596.062012 327.552490,597.629150 325.854675,598.944031 
	C322.289612,601.704956 317.097900,599.963684 315.886139,595.521240 
	C314.691986,591.143250 316.285706,587.709167 319.888885,585.110413 
	C323.410858,582.570190 326.898926,582.508728 330.483887,585.068970 
	C338.210602,590.586975 336.805054,603.940613 327.994232,609.173340 
	C322.760010,612.281799 317.347198,612.068787 311.064880,609.913147 
	C313.277161,616.901428 313.066071,623.468140 313.366913,630.334473 
	C314.688446,629.903564 315.359161,629.820190 315.879181,629.495483 
	C328.400726,621.677734 337.864807,611.287231 342.528534,597.061157 
	C345.546783,587.854431 343.921753,579.667603 335.753510,572.670837 
M183.891068,388.422333 
	C182.460648,387.983521 181.041458,387.503265 179.598099,387.112213 
	C162.116562,382.375519 147.529922,394.028381 148.336899,412.075226 
	C148.624268,418.501770 152.561035,423.944916 157.556519,424.822723 
	C166.132599,426.329651 172.649689,423.669830 175.540573,417.482849 
	C178.163589,411.869141 173.517670,405.046997 167.339859,405.514984 
	C165.224197,405.675293 163.352936,406.605286 162.686005,408.728790 
	C161.986618,410.955658 161.731659,413.347656 162.970215,415.507904 
	C163.614716,416.632019 164.855042,416.892548 166.059448,416.432068 
	C167.296631,415.959106 167.896255,414.866913 167.625763,413.626373 
	C167.384705,412.520844 166.728912,411.508301 166.278290,410.445343 
	C165.533386,408.688110 166.073364,407.411072 167.946075,407.103973 
	C170.416428,406.698853 171.939453,408.449890 173.399277,410.037811 
	C174.796021,411.557220 175.767761,413.286438 174.908127,415.478394 
	C172.275330,422.191742 160.506683,425.300598 155.340103,420.407562 
	C151.554901,416.822693 149.690018,412.101868 150.316635,406.852966 
	C151.935196,393.294830 168.091278,384.622345 181.319748,390.065704 
	C191.999527,394.460266 196.445206,402.022736 196.333633,415.559235 
	C196.175461,434.750488 179.181793,452.693390 156.081726,445.537903 
	C142.117096,441.212189 135.016586,431.234406 130.658447,418.398743 
	C122.397179,394.067505 126.710594,371.187927 138.843124,349.230621 
	C140.465103,346.295166 141.934067,345.698334 144.446106,348.369293 
	C147.483505,351.598816 149.560532,350.238464 150.913284,346.580811 
	C152.007492,343.622223 153.153397,340.679596 154.380554,337.773895 
	C157.702362,329.908386 163.649414,323.817780 168.602753,317.019348 
	C159.748993,323.263214 150.780289,329.437531 144.269760,338.143494 
	C134.376038,351.373566 127.598534,366.208069 125.708557,382.704712 
	C124.422935,393.926208 124.519257,405.369080 126.908691,416.499451 
	C129.938690,430.613770 139.236343,440.034698 151.241165,447.285248 
	C160.771622,453.041321 170.291763,458.877319 178.115112,466.975464 
	C185.499619,474.619324 189.881805,483.719757 188.913467,494.418030 
	C187.939743,505.175842 181.144928,511.978271 171.539047,516.255554 
	C178.878372,514.426758 184.925415,510.834625 187.802338,503.472137 
	C194.091354,487.377594 186.235001,470.351624 173.854355,460.453491 
	C170.154007,457.495117 166.234253,454.811188 162.415009,452.001495 
	C162.380646,451.485382 162.346268,450.969269 162.311890,450.453156 
	C171.498428,447.994446 181.495148,447.452301 188.208939,439.513916 
	C194.728394,431.805298 198.247131,423.275055 197.893951,413.042114 
	C197.532959,402.582947 193.298721,394.490601 183.891068,388.422333 
M311.154999,550.652283 
	C308.036072,554.237793 306.517242,558.389648 307.447235,563.089783 
	C308.676788,569.303711 310.280609,570.091064 316.212677,567.946472 
	C326.738617,564.141113 337.449127,567.479065 343.518188,576.516968 
	C347.465485,582.395264 346.813812,588.899292 345.657898,595.323914 
	C344.240112,603.203674 340.726410,610.282959 336.424469,617.033997 
	C342.031067,612.455688 348.385590,608.085938 350.352753,601.077515 
	C354.715698,585.533386 354.478577,570.015564 345.331299,555.897217 
	C338.380127,545.168457 321.859039,542.556519 311.154999,550.652283 
M353.392883,522.699097 
	C347.103851,521.944092 340.810913,521.177063 336.472748,528.227478 
	C341.928558,530.806152 346.443756,534.094360 350.218384,538.378662 
	C354.116272,542.802795 356.862976,547.901062 359.287109,553.207336 
	C361.649231,558.377869 363.089508,563.845825 364.059448,569.409302 
	C365.060120,575.149231 364.804108,580.954224 364.278015,586.742554 
	C363.784790,592.169128 361.583008,597.177002 360.348541,602.470520 
	C362.569031,599.870056 364.777191,597.303955 366.224243,594.363220 
	C372.779480,581.041809 375.985504,566.918457 372.396454,552.333252 
	C369.566315,540.832092 364.835724,529.898254 353.392883,522.699097 
M140.286087,589.335999 
	C143.376968,597.338867 148.273788,604.175110 154.011703,610.967102 
	C154.178741,608.925476 153.214005,607.756592 152.618927,606.439697 
	C149.263489,599.014282 145.824127,591.610962 144.265762,583.533264 
	C141.048965,566.859070 142.630875,551.095154 153.093094,536.998901 
	C154.705154,534.826965 157.903793,532.802979 156.218674,529.756409 
	C154.297501,526.283081 150.414032,527.202515 147.135284,527.474609 
	C146.020081,527.567261 144.913696,528.144836 143.868118,528.638184 
	C134.240662,533.181274 130.934799,541.597656 130.399017,551.416931 
	C129.669540,564.786011 134.025177,576.947876 140.286087,589.335999 
M349.553223,542.943787 
	C342.961517,534.025330 334.866455,528.567871 323.104187,531.166809 
	C319.175537,532.034912 316.633484,534.385803 314.944427,537.845886 
	C314.193268,539.384583 313.795441,541.137268 314.654480,542.656311 
	C315.699066,544.503418 317.745331,543.940247 319.188019,543.492920 
	C331.156952,539.781799 345.201508,547.854370 350.890686,560.312439 
	C354.251373,567.671509 355.567200,575.478638 356.259583,583.492676 
	C356.954315,591.533813 354.923615,598.995422 352.114410,606.406982 
	C355.858948,601.565125 359.197601,596.592041 360.331360,590.582947 
	C363.565308,573.442627 361.388519,557.450684 349.553223,542.943787 
M166.914658,582.380066 
	C166.309204,589.943542 165.703751,597.507019 165.098297,605.070496 
	C166.775864,602.911926 167.285812,600.548584 167.817337,598.190125 
	C170.912415,584.456299 179.893616,570.480408 198.787338,571.899475 
	C204.784286,572.349854 207.227798,569.287415 206.839264,563.324341 
	C206.316742,555.305176 200.756271,551.117615 192.850769,552.789734 
	C178.423981,555.841187 169.575104,565.725403 166.914658,582.380066 
M147.103088,556.555237 
	C143.965988,569.879517 148.159515,592.655029 155.508850,602.072083 
	C153.150833,594.579346 153.096634,586.851501 153.832565,579.285583 
	C155.449081,562.666748 160.512970,547.649353 176.167236,538.620483 
	C179.015533,536.977722 178.940643,535.345459 176.603683,533.227844 
	C172.927963,529.897217 167.978638,529.115234 163.157089,531.572266 
	C153.308807,536.590881 149.686890,545.781189 147.103088,556.555237 
M236.387268,301.286865 
	C235.147812,299.980133 233.995697,298.016754 231.945053,298.720581 
	C229.548553,299.543121 229.359039,301.961060 229.359283,304.162079 
	C229.359558,306.673553 228.703903,308.857391 226.277283,309.936432 
	C224.274597,310.826965 222.753967,309.671631 221.529816,308.174408 
	C219.775955,306.029297 219.576004,303.699219 220.768188,301.193390 
	C224.041473,294.313324 231.150818,292.877747 236.851135,297.908264 
	C238.424652,299.296906 239.264526,301.550140 241.902466,302.145630 
	C244.902603,299.258301 243.634506,296.580414 241.396957,294.019592 
	C235.723679,287.526733 228.164230,288.510620 220.963486,289.480225 
	C214.084808,290.406433 208.435944,293.715973 205.888626,300.824249 
	C203.346313,307.918579 207.413300,312.540192 211.868179,316.989777 
	C216.456863,321.572998 223.264343,321.905792 229.736465,317.980560 
	C235.292694,314.610809 238.357910,307.597443 236.387268,301.286865 
M158.568314,568.048462 
	C154.824005,582.129272 156.470322,595.677673 162.544601,608.806824 
	C161.781433,599.827332 162.230423,590.920715 163.720520,582.064270 
	C166.315826,566.639221 178.245453,549.640015 194.459106,549.563416 
	C198.322586,549.545105 198.357925,547.004211 196.678604,544.448486 
	C195.410797,542.519043 193.657669,540.933350 191.257843,540.279968 
	C183.329498,538.121277 176.399216,540.104614 170.658890,545.728821 
	C164.594025,551.671021 160.875031,559.047974 158.568314,568.048462 
M382.002197,584.398743 
	C385.478485,575.899963 388.370850,567.250427 387.650604,557.886902 
	C386.986786,549.256653 385.143066,541.016602 377.649628,535.465149 
	C375.358551,533.767822 372.739044,531.902649 368.987610,534.565247 
	C379.956451,558.979797 379.502686,582.816406 363.833405,605.577087 
	C371.228912,599.618103 376.654633,592.514771 382.002197,584.398743 
M156.434448,338.957794 
	C154.875870,341.763824 154.060013,344.859344 153.552048,347.953552 
	C152.800476,352.531586 153.201355,356.976685 157.144348,360.273987 
	C159.938675,362.610687 163.110321,362.042297 166.144180,361.125336 
	C169.008194,360.259735 168.890427,357.624268 168.771912,355.287140 
	C168.051071,341.074066 173.657715,329.112762 181.800110,317.990295 
	C183.859009,315.177795 186.692368,312.678192 186.925125,307.938873 
	C173.105148,315.052124 163.739044,325.460449 156.434448,338.957794 
M184.244064,331.107788 
	C185.306747,324.633453 188.010452,318.665833 190.073410,312.432220 
	C184.850677,317.049835 181.121628,322.724457 178.174789,328.816803 
	C174.491623,336.431396 170.840317,344.169037 171.319824,352.997253 
	C171.671921,359.479919 177.219360,364.332581 183.354309,363.617981 
	C187.231827,363.166351 189.569199,360.471863 187.904846,357.885284 
	C182.674728,349.757141 182.577896,340.990234 184.244064,331.107788 
M192.114334,316.364716 
	C187.115021,326.708405 183.771408,337.319183 186.929855,348.956390 
	C188.944870,356.380615 193.727615,359.628387 201.299744,358.940033 
	C204.746445,358.626709 206.775955,356.874176 207.619766,353.599518 
	C208.464767,350.320251 206.918900,348.575928 204.207077,346.766449 
	C197.849365,342.524231 193.730637,336.702545 193.732544,328.644348 
	C193.733383,325.156036 193.783951,321.665833 193.675507,318.180756 
	C193.649734,317.352448 194.472717,315.756561 192.114334,316.364716 
M206.299591,590.189026 
	C211.287582,584.077148 209.040741,576.728271 201.586731,574.887695 
	C197.984634,573.998108 194.318451,574.064880 190.718140,574.791748 
	C180.241440,576.906677 170.485046,591.144409 170.692780,604.282532 
	C171.897339,600.031860 173.684052,596.471375 176.597000,593.669067 
	C185.567947,585.038940 192.809219,584.030090 206.299591,590.189026 
M129.668900,570.591858 
	C127.191650,560.074890 127.237083,549.436707 129.162384,537.491333 
	C123.761269,540.680359 118.917000,542.406494 118.373283,548.023010 
	C117.927940,552.623352 117.854042,557.332581 118.997421,561.919006 
	C121.979599,573.881592 130.103989,582.817505 137.010666,592.502747 
	C134.870346,585.364197 131.264557,578.759216 129.668900,570.591858 
M365.668335,611.030212 
	C370.193146,608.238464 374.879120,605.674500 379.210785,602.609802 
	C389.697418,595.190247 395.252716,585.131592 394.635468,572.047302 
	C394.464691,568.427673 393.627014,565.016357 390.529236,560.942810 
	C388.868225,571.833862 387.235992,581.649109 381.585907,590.044922 
	C375.948639,598.421753 368.980499,605.604675 361.318207,612.358398 
	C362.558350,612.011719 363.798523,611.665039 365.668335,611.030212 
M214.442093,642.830811 
	C215.781525,645.962646 217.727585,648.641174 220.644669,650.445374 
	C224.021011,652.533752 229.254166,651.294250 231.526825,647.439026 
	C233.396271,644.267822 233.869385,640.752808 230.061340,637.342224 
	C229.085220,640.243835 229.167114,643.493530 225.419846,643.213684 
	C223.596878,643.077454 222.043732,642.417480 221.633347,640.560730 
	C220.485428,635.367126 225.181549,634.633484 228.314743,632.663879 
	C225.584351,627.526917 223.002075,622.668579 220.165146,617.331177 
	C217.635040,620.916138 217.062500,624.409973 215.834534,627.608093 
	C214.047165,632.263123 212.146912,636.973511 214.442093,642.830811 
M199.421646,319.380035 
	C198.687134,318.067078 198.616745,316.286530 196.333389,314.994659 
	C196.333389,319.142609 196.399704,322.593292 196.319473,326.040527 
	C196.157135,333.016724 199.139267,338.608643 204.130447,343.125122 
	C207.468460,346.145660 211.471588,347.769989 216.046524,345.953430 
	C220.084473,344.350098 220.737930,340.040375 217.437958,337.229919 
	C216.150940,336.133881 214.478592,335.831055 212.958130,335.196930 
	C206.109833,332.340607 200.522766,328.248840 199.421646,319.380035 
M219.894913,331.724609 
	C222.812622,331.375183 225.322083,330.085663 225.222702,326.929504 
	C225.136353,324.186646 222.401901,323.475983 220.112564,323.026215 
	C215.301758,322.080963 210.987411,320.240051 207.216568,317.026489 
	C204.969482,315.111481 204.414368,311.952820 202.021973,309.674835 
	C200.100983,320.930328 207.116898,333.861816 219.894913,331.724609 
M371.955872,610.574951 
	C370.355499,611.464478 368.750458,612.345764 367.156036,613.245911 
	C365.605316,614.121460 363.616760,614.385132 362.225342,616.391357 
	C370.845917,616.076233 378.759857,615.072144 386.093872,611.625061 
	C393.129150,608.318420 394.955841,602.951050 391.378784,595.521912 
	C385.438599,601.024841 379.413116,606.164124 371.955872,610.574951 
z"/>
<path fill="#000000" opacity="1.000000" stroke="none" 
	d="
M650.325623,635.725525 
	C616.568176,608.464783 594.759460,573.380127 585.003540,532.121948 
	C579.054199,506.962036 576.962952,480.685669 579.307556,454.299042 
	C581.354126,431.266052 585.148254,408.723969 592.774292,386.988556 
	C606.489868,347.897034 630.787109,317.012421 666.594482,295.757477 
	C688.363647,282.835480 711.961792,276.112885 737.473938,276.646454 
	C748.455627,276.876160 759.506592,276.037140 770.379883,277.929321 
	C784.072144,280.312012 795.918091,287.012482 807.422913,294.507721 
	C818.003723,301.401031 827.598511,309.701752 838.617493,315.964539 
	C844.344666,319.219604 849.879578,319.701660 855.563965,316.082184 
	C856.851746,315.262207 858.132996,314.415894 858.590088,312.893494 
	C860.971619,304.961609 864.597229,297.360077 864.851562,288.857849 
	C864.910706,286.878601 865.346558,284.896332 865.752136,282.945221 
	C866.288330,280.366150 867.905823,278.757935 870.596069,278.809174 
	C873.742188,278.869049 874.215332,281.282104 874.298828,283.734070 
	C874.638733,293.716492 875.181763,303.700684 875.185120,313.684387 
	C875.197510,350.673828 875.047607,387.663422 874.894592,424.652710 
	C874.875366,429.307190 874.514648,433.962524 874.234131,438.612732 
	C874.092163,440.965637 873.943848,443.641266 870.858398,443.891937 
	C868.015198,444.122955 867.471436,441.468475 866.861694,439.501587 
	C862.332764,424.892090 858.172241,410.164032 853.412842,395.631470 
	C845.608337,371.801086 839.203552,347.298584 824.159241,326.574493 
	C814.573059,313.369171 803.861938,300.934479 787.050110,297.120300 
	C758.155090,290.564758 739.084412,297.541595 724.039978,324.860229 
	C712.851501,345.176910 707.764526,367.736694 703.432739,390.292908 
	C696.315002,427.355286 697.731140,464.821014 699.181213,502.267151 
	C700.433777,534.614197 708.630493,565.366211 720.561646,595.171265 
	C727.174072,611.689636 738.008240,625.474121 752.261597,636.194214 
	C763.719604,644.811768 777.242798,644.615906 790.624695,643.216858 
	C820.603821,640.082458 838.036072,620.712524 850.836853,595.711670 
	C861.792297,574.314880 867.761047,551.354736 871.666504,527.779358 
	C872.042542,525.509399 871.913635,522.893799 874.414490,521.752930 
	C878.045715,520.096375 880.835999,522.686829 880.224121,527.482849 
	C878.012512,544.816040 875.146790,562.031372 868.907471,578.466858 
	C860.053894,601.788818 847.963440,623.054504 828.986450,639.771606 
	C811.551758,655.130188 791.168945,663.567322 767.997131,665.344299 
	C759.190186,666.019714 750.376526,666.207886 741.548889,666.345154 
	C707.651611,666.872009 677.445679,656.480713 650.325623,635.725525 
M699.855774,648.586121 
	C706.813904,651.260010 713.744080,654.047729 722.579346,654.781128 
	C717.005798,650.181763 715.805298,644.691772 713.675293,639.407227 
	C711.099854,640.251038 708.811035,641.154785 706.444580,641.749084 
	C697.191528,644.072937 686.203491,637.285950 684.071167,628.013550 
	C683.061523,623.623108 685.365601,619.388367 689.473999,618.083557 
	C693.201477,616.899719 696.737854,618.554932 697.341736,621.979492 
	C698.048035,625.984680 695.767700,627.123108 692.157776,627.435791 
	C688.099487,627.787415 687.325989,629.889832 689.734680,633.093140 
	C693.288208,637.818726 698.131592,639.444397 703.836060,638.694336 
	C709.334534,637.971436 712.862549,634.688965 714.716003,629.617371 
	C720.786194,613.007385 711.627380,599.395935 694.241699,595.503662 
	C686.505432,593.771667 679.355896,598.055969 675.782715,605.159607 
	C669.316345,618.015076 673.320496,633.206909 685.525208,641.003845 
	C689.852234,643.768127 694.621094,645.840759 699.855774,648.586121 
M651.603088,391.750336 
	C655.764282,388.686096 660.588257,389.789581 665.158447,389.782318 
	C673.044800,389.769745 681.756348,396.671082 684.399841,404.112091 
	C686.914978,411.191650 686.015381,418.300690 684.912354,425.326233 
	C683.374512,435.121185 672.033569,446.489502 662.799683,448.200226 
	C645.361389,451.430878 625.097290,439.943878 619.787109,423.011047 
	C611.788391,397.504883 615.491211,373.032318 627.783386,349.617828 
	C628.496094,348.260254 629.441895,347.117950 632.133423,346.928040 
	C632.323669,347.232727 632.699280,348.244110 633.405640,348.898254 
	C637.445679,352.639496 638.404480,352.216034 639.984619,347.018402 
	C641.089905,343.382843 642.632324,339.840698 644.331604,336.432404 
	C649.940796,325.181824 658.616089,316.582520 668.985291,309.006592 
	C668.195129,309.067047 667.835999,308.987244 667.615784,309.126648 
	C646.830444,322.285522 629.420959,338.095459 620.730896,362.279480 
	C610.315125,391.266113 610.048462,418.271576 630.363098,443.602234 
	C641.396545,457.359955 637.609985,479.398804 622.888367,487.337830 
	C610.444885,494.048401 601.282715,490.991791 597.626404,478.561646 
	C596.126282,473.461639 598.138550,468.421387 602.179199,465.821320 
	C606.717773,462.900970 611.697205,463.195984 616.119263,466.621216 
	C618.013489,468.088531 619.829651,469.718445 619.621887,472.317047 
	C619.395020,475.153595 616.696106,474.479309 614.955750,475.078705 
	C613.785461,475.481781 612.751038,475.929352 612.553589,477.287415 
	C612.357666,478.635162 613.176453,479.485962 614.200073,480.126770 
	C615.328003,480.832855 616.452759,480.621185 617.428711,479.792450 
	C619.270325,478.228485 620.435303,476.291473 620.750061,473.839294 
	C621.424683,468.582397 618.720947,464.890045 612.663147,462.906860 
	C607.027222,461.061798 600.521301,463.297455 597.795044,468.016083 
	C594.802429,473.195648 595.550598,481.900269 599.374207,486.389282 
	C604.659119,492.593842 611.121948,494.126434 618.157715,491.722839 
	C633.388977,486.519440 641.525818,467.838257 637.501892,455.505585 
	C636.737000,453.161469 635.996277,450.715302 637.522461,448.278778 
	C639.127380,447.940460 640.442322,448.785583 641.858704,449.179108 
	C649.476746,451.295563 657.126221,452.435120 664.923401,450.003998 
	C682.140564,444.635681 692.372253,425.541626 687.818481,407.212097 
	C684.668518,394.533264 675.398193,387.601135 661.849670,387.793396 
	C649.488281,387.968811 640.085815,395.327087 637.162842,407.113220 
	C635.678833,413.096741 639.953674,422.486206 645.525513,425.481476 
	C650.803650,428.318817 659.184448,426.348724 663.734131,421.197632 
	C666.306641,418.285126 666.577087,414.798279 665.671326,411.316345 
	C664.705261,407.602386 658.580811,405.261353 654.772400,406.853668 
	C651.331665,408.292267 650.273804,412.204193 652.145569,416.217499 
	C652.841003,417.708618 653.693176,418.943878 655.493713,418.455780 
	C657.447205,417.926331 657.759949,416.269470 657.721375,414.476898 
	C657.685120,412.790344 655.771729,411.695343 656.356506,409.599121 
	C659.730530,407.815338 661.432373,410.311676 662.999146,412.565643 
	C665.155518,415.667908 663.483459,418.375244 661.440613,420.650940 
	C657.509644,425.030060 650.566833,425.654663 645.423889,422.334351 
	C640.648499,419.251282 638.287598,411.477173 640.497864,405.837341 
	C642.671021,400.292419 645.877014,395.510895 651.603088,391.750336 
M645.610413,602.777893 
	C634.526306,581.187927 634.554810,560.149353 649.027710,540.060730 
	C643.474854,535.366333 637.746582,535.660889 632.312134,540.614319 
	C622.988708,549.112366 622.972717,560.038269 624.767212,571.151184 
	C627.261353,586.596863 635.863037,599.112000 645.073486,611.237854 
	C647.847168,614.889404 650.780945,618.392517 655.594238,621.281067 
	C652.053162,614.791077 648.967407,609.135498 645.610413,602.777893 
M675.753906,517.162476 
	C676.348389,510.087158 673.139587,504.659180 668.307739,499.923492 
	C663.831421,495.536346 658.270935,493.728973 652.226440,492.733093 
	C637.868652,490.367554 619.952087,498.640472 612.064880,511.770660 
	C605.179932,523.232300 603.982727,535.998474 605.926880,548.959961 
	C609.566406,573.225098 616.801025,586.354614 636.171936,605.242920 
	C622.633179,579.212585 620.053894,575.041931 621.064026,550.874268 
	C615.146179,551.472351 613.036499,556.367737 610.092773,560.933228 
	C606.083496,552.618713 607.032593,544.444214 606.579956,536.393799 
	C605.234131,512.455811 628.740417,489.373535 655.046021,494.550354 
	C667.478149,496.996918 675.266052,506.931549 673.121399,519.344421 
	C672.113708,525.176697 666.257446,529.696350 660.503235,529.082825 
	C654.797119,528.474426 650.328613,523.000488 650.752502,517.138062 
	C651.114929,512.125854 654.660278,509.884674 659.669678,511.508301 
	C660.102478,512.895691 658.963318,513.614502 658.337952,514.528259 
	C657.504211,515.746155 657.146057,516.942688 658.282104,518.136475 
	C659.109558,519.006042 660.125610,519.727295 661.371887,519.292419 
	C662.709412,518.825684 663.451965,517.748718 663.776428,516.334839 
	C664.543457,512.992004 662.126160,509.666473 658.475403,509.300446 
	C654.134216,508.865204 650.910034,510.574280 649.551819,514.822449 
	C647.947388,519.840515 650.789368,526.079407 655.090637,528.646240 
	C662.666687,533.167236 675.012878,528.375549 675.753906,517.162476 
M653.317749,580.686096 
	C653.270020,596.701111 657.053955,611.475098 662.909302,617.223206 
	C660.013611,607.090820 660.238342,597.142944 661.939148,587.277344 
	C662.942383,581.457764 663.362610,575.409119 666.605530,570.113464 
	C671.281189,562.478271 678.068542,557.924438 686.540161,555.414551 
	C691.630188,553.906494 692.063171,551.343384 688.201355,547.714905 
	C684.121582,543.881653 675.039978,543.936340 669.221619,548.275269 
	C658.745728,556.087463 654.844116,567.360535 653.317749,580.686096 
M662.794983,550.344177 
	C665.659851,547.883789 668.524780,545.423340 671.376892,542.973938 
	C665.265442,535.189148 655.669373,535.350464 649.846130,543.249329 
	C644.761108,550.146973 643.189575,558.156677 641.802063,566.497498 
	C638.868103,584.133789 646.147888,598.366882 655.181946,612.284668 
	C647.966492,590.663574 647.643921,569.918091 662.794983,550.344177 
M701.824646,573.429443 
	C702.764648,568.182495 702.841309,562.929871 698.368225,559.242310 
	C693.861389,555.526855 688.815918,556.374939 683.823303,558.777771 
	C672.875366,564.046814 666.902771,572.766907 665.132507,584.686768 
	C663.777100,593.813049 664.142334,602.877502 665.055359,611.963928 
	C666.123779,606.687012 667.032654,601.429138 668.952148,596.462219 
	C673.797180,583.925293 682.116943,575.835571 696.404907,575.728699 
	C698.254639,575.714844 700.100342,575.692993 701.824646,573.429443 
M708.342224,320.105988 
	C714.139282,320.780975 719.255615,319.090240 723.201172,314.905426 
	C726.066345,311.866425 728.141052,308.143127 727.602905,303.655670 
	C727.270996,300.887848 725.513855,298.879700 722.823059,298.660919 
	C719.883240,298.421844 720.503418,301.283173 720.005737,303.054962 
	C719.781372,303.853577 719.587402,304.667206 719.465332,305.486786 
	C719.105042,307.905579 718.590576,310.254822 715.462646,310.216583 
	C712.531433,310.180786 711.073364,308.318634 710.292603,305.678070 
	C709.392761,302.634674 710.268433,300.095184 712.391235,297.940308 
	C715.470276,294.814697 719.150635,294.138062 723.389343,295.126831 
	C727.597778,296.108521 729.670593,299.578522 732.195190,302.538330 
	C735.376587,298.966064 734.206177,294.507660 729.415344,291.593689 
	C721.697571,286.899353 713.538879,286.962341 705.521362,290.442657 
	C697.179810,294.063690 693.464539,300.960663 695.521484,308.266846 
	C697.253235,314.418243 701.941895,317.715027 708.342224,320.105988 
M647.056824,361.696075 
	C654.125916,364.266235 658.206970,362.878876 657.954102,357.748840 
	C657.087646,340.172577 664.587952,325.906769 675.309265,312.859039 
	C677.053284,310.736603 679.017151,308.777588 680.549072,305.067719 
	C672.023865,309.890656 664.971069,314.871002 658.994690,321.012665 
	C651.433411,328.783112 644.647095,337.265717 642.764526,348.500702 
	C641.955505,353.328827 642.633728,357.752747 647.056824,361.696075 
M687.011597,340.257446 
	C682.600586,332.546967 682.965637,324.013916 683.355652,314.380035 
	C679.854187,320.294495 677.530090,325.420410 676.877136,330.809540 
	C675.907837,338.809326 674.531860,347.094238 679.097961,354.651245 
	C682.595093,360.439209 689.504822,362.374054 694.527405,359.079071 
	C699.277100,355.963104 699.391052,350.466461 694.652954,347.655609 
	C691.713806,345.912018 689.488403,343.505829 687.011597,340.257446 
M676.169739,315.728546 
	C674.536072,318.027283 672.680298,320.201416 671.308350,322.646973 
	C666.187439,331.775391 660.991394,340.946045 661.349243,351.912201 
	C661.522278,357.217194 663.646729,361.582458 668.721436,363.975983 
	C671.844116,365.448822 674.549072,364.331146 676.989014,362.312897 
	C678.677856,360.915924 678.731201,359.268951 677.564636,357.455383 
	C669.377441,344.728729 672.734741,332.014496 677.635986,319.305969 
	C678.653625,316.667236 680.642456,314.365601 680.778564,311.600159 
	C679.375916,312.819855 678.002075,314.014496 676.169739,315.728546 
M677.242737,587.751404 
	C671.625305,595.633728 668.141663,604.141418 669.356262,614.024963 
	C670.070679,612.683899 670.297852,611.178162 670.881348,609.826233 
	C674.391846,601.691956 678.600342,594.179565 688.372437,592.320618 
	C692.953430,591.449158 697.324829,592.794556 701.581299,594.173340 
	C705.160034,595.332764 706.589294,593.507324 707.404541,590.654968 
	C708.747314,585.956665 706.059631,581.318970 700.384338,579.672729 
	C691.257629,577.025208 683.770508,580.194275 677.242737,587.751404 
M717.194092,633.610107 
	C714.695740,641.281128 718.978455,646.916565 723.483032,651.952393 
	C726.786926,655.645813 734.432251,654.034729 737.127197,649.895203 
	C739.746582,645.871704 738.652283,641.956848 733.939819,639.149841 
	C733.712280,639.780212 733.399231,640.348816 733.309143,640.950745 
	C732.977539,643.166077 732.634705,645.358154 729.775879,645.600647 
	C728.129517,645.740234 726.762451,645.082031 726.141418,643.530701 
	C725.257080,641.322021 725.495789,638.775024 727.414062,637.616211 
	C731.896179,634.908264 730.328125,631.901611 728.256897,628.944580 
	C726.224670,626.043152 723.802612,623.414673 721.344971,620.414062 
	C719.898254,624.947876 718.640259,628.890198 717.194092,633.610107 
M687.563538,314.754120 
	C684.062622,323.658295 687.997559,338.262970 692.837585,342.687012 
	C696.092590,345.662292 699.802856,347.090424 704.166748,346.725098 
	C707.215576,346.469879 709.048584,344.622955 709.528564,341.714996 
	C710.052551,338.541077 707.771423,337.168274 705.238770,336.584503 
	C699.878662,335.348999 696.225037,332.026001 693.079407,327.754059 
	C690.235291,323.891632 689.317017,319.370270 687.563538,314.754120 
M713.697998,324.601257 
	C711.838745,323.933258 710.015808,323.128113 708.113159,322.623779 
	C703.015137,321.272430 698.620850,318.864380 695.143066,314.810669 
	C693.745239,313.181274 693.929077,310.510254 691.555420,308.992584 
	C690.070496,318.076477 693.079651,324.815216 699.829773,329.930878 
	C704.466064,333.444580 709.807495,333.523132 713.623840,330.409454 
	C715.552063,328.836304 716.478882,327.125122 713.697998,324.601257 
z"/>
<path fill="#000000" opacity="1.000000" stroke="none" 
	d="
M531.584473,661.845093 
	C524.050720,666.070435 516.215149,666.437195 508.528290,664.652771 
	C495.314941,661.585571 488.091583,649.206970 490.624207,635.167786 
	C493.000763,621.993774 504.158173,613.766479 517.797852,614.950806 
	C528.792297,615.905457 537.553467,620.291870 540.959351,631.384277 
	C544.593506,643.220032 542.166321,653.728394 531.584473,661.845093 
z"/>
</svg>