<?xml version="1.0" standalone="no"?>
<!DOCTYPE svg PUBLIC "-//W3C//DTD SVG 20010904//EN"
 "http://www.w3.org/TR/2001/REC-SVG-20010904/DTD/svg10.dtd">
<svg version="1.0" xmlns="http://www.w3.org/2000/svg"
 width="300.000000pt" height="300.000000pt" viewBox="0 0 300.000000 300.000000"
 preserveAspectRatio="xMidYMid meet">
<metadata>
Created by potrace 1.10, written by Peter Selinger 2001-2011
</metadata>
<g transform="translate(0.000000,300.000000) scale(0.100000,-0.100000)"
fill="#000000" stroke="none">
<path d="M0 1500 l0 -1500 1500 0 1500 0 0 1500 0 1500 -1500 0 -1500 0 0
-1500z m906 681 c27 -12 79 -40 116 -62 37 -23 72 -38 77 -34 6 3 15 23 21 45
12 45 33 70 60 70 36 0 40 -32 40 -288 0 -227 -2 -252 -18 -272 -30 -37 -58
-13 -83 73 -53 183 -113 291 -183 331 -174 102 -263 -30 -274 -402 -4 -166 6
-297 34 -424 19 -82 56 -128 102 -128 55 0 62 23 62 212 l0 168 -26 10 c-14 6
-37 10 -51 10 -54 0 -81 54 -46 92 15 17 37 18 287 18 306 0 321 -3 321 -59 0
-38 -11 -47 -67 -56 l-38 -6 -1 -132 c-2 -223 -12 -334 -31 -354 -17 -16 -19
-16 -43 7 -13 13 -27 30 -30 39 -7 21 -66 61 -92 61 -11 0 -48 -18 -82 -40
-123 -80 -136 -84 -246 -85 -93 0 -105 2 -167 33 -129 63 -246 228 -282 397
-19 93 -15 318 8 398 25 89 63 162 118 228 98 118 239 183 384 175 54 -2 97
-11 130 -25z m1449 3 c21 -9 67 -36 103 -60 35 -24 70 -44 78 -44 7 0 16 12
20 28 15 74 41 97 74 67 19 -17 20 -32 20 -255 0 -223 -1 -239 -20 -261 l-20
-24 -20 23 c-10 13 -37 79 -59 148 -51 155 -69 191 -120 237 -38 34 -46 37
-102 37 -57 0 -64 -3 -94 -34 -35 -37 -68 -135 -87 -252 -17 -110 -5 -383 21
-473 52 -178 128 -244 244 -212 85 24 142 105 177 253 22 93 42 118 72 91 34
-30 15 -135 -47 -259 -44 -91 -130 -174 -207 -200 -77 -27 -243 -25 -320 3
-139 52 -250 167 -319 333 -29 69 -32 86 -37 216 -4 109 -1 158 12 216 44 196
182 362 350 420 68 23 228 24 281 2z m-732 -1036 c68 -81 -9 -199 -109 -165
-83 28 -97 135 -24 185 47 32 95 25 133 -20z"/>
<path d="M645 2161 c-181 -52 -307 -195 -350 -396 -19 -91 -19 -264 0 -357 33
-161 138 -309 263 -370 60 -30 75 -33 152 -33 95 1 130 13 239 83 68 45 104
51 149 28 27 -14 63 -56 75 -88 15 -41 24 -11 30 95 4 61 7 169 7 238 0 143 3
149 73 158 28 4 43 11 45 23 5 25 -49 29 -333 26 -242 -3 -250 -4 -250 -23 0
-17 8 -21 57 -25 31 -3 63 -11 70 -18 10 -10 13 -61 13 -203 l0 -191 -28 -24
c-64 -55 -145 -13 -180 95 -31 98 -50 292 -44 466 6 181 23 272 68 363 50 103
120 127 225 78 56 -26 99 -72 142 -155 27 -50 41 -90 84 -228 21 -68 32 -56
38 37 7 101 2 419 -6 432 -9 14 -34 -11 -34 -34 0 -37 -28 -88 -49 -88 -11 0
-57 22 -103 50 -132 78 -233 96 -353 61z m73 -33 c7 -7 12 -19 12 -27 0 -11
-3 -11 -19 3 -22 20 -51 11 -51 -15 0 -25 20 -24 27 1 6 21 23 18 23 -5 0 -18
-28 -45 -46 -45 -8 0 -23 9 -34 20 -24 24 -27 14 -3 -12 9 -10 24 -18 35 -18
10 0 18 -4 18 -10 0 -5 -14 -10 -30 -10 -22 0 -33 6 -40 23 -7 17 -9 18 -9 4
-1 -10 12 -26 29 -35 33 -19 37 -30 15 -39 -22 -8 -55 25 -55 54 0 32 27 95
47 111 21 15 65 16 81 0z m-151 -43 c-4 -8 -2 -17 3 -20 6 -4 10 -22 10 -41 0
-21 8 -42 21 -55 22 -22 19 -49 -4 -49 -27 0 -39 28 -35 79 1 29 -1 51 -7 52
-15 3 -56 -83 -52 -108 4 -23 -9 -33 -30 -26 -25 9 -13 61 23 110 47 62 84 93
71 58z m-82 -61 c-19 -25 -35 -52 -35 -60 0 -8 -7 -14 -17 -12 -26 5 -56 -84
-50 -148 10 -94 45 -136 115 -136 67 0 110 94 65 144 -24 27 -79 24 -99 -7
-21 -32 -10 -65 21 -65 28 0 42 17 26 33 -8 8 -11 6 -11 -6 0 -9 -5 -17 -11
-17 -6 0 -9 8 -7 18 5 23 42 22 46 -2 4 -20 -21 -46 -44 -46 -21 0 -44 30 -44
56 0 32 42 74 74 74 14 0 37 -11 53 -24 56 -48 28 -145 -51 -172 -35 -13 -40
-12 -76 12 -71 47 -92 171 -45 269 15 31 109 135 122 135 2 0 -13 -21 -32 -46z
m67 -24 c-3 -32 0 -55 8 -65 10 -12 9 -16 -4 -21 -27 -10 -48 15 -40 50 6 30
31 86 38 86 2 0 1 -22 -2 -50z m-13 -395 c52 -60 41 -134 -24 -155 -66 -22
-105 13 -108 97 -2 44 -4 48 -29 51 -16 2 -28 -1 -28 -7 0 -6 7 -8 15 -5 8 4
15 2 15 -4 0 -17 -30 -23 -36 -7 -7 18 12 45 31 45 8 0 22 -11 32 -23 15 -19
22 -22 36 -13 33 21 75 -30 48 -57 -8 -8 -16 -6 -29 7 -16 17 -16 18 6 11 16
-4 22 -2 22 9 0 20 -37 31 -55 16 -20 -17 -19 -63 3 -88 41 -49 122 -18 122
48 0 20 -12 43 -36 70 -20 22 -32 40 -26 40 5 0 24 -16 41 -35z m539 -187 c32
-36 46 -106 31 -159 l-13 -44 -6 60 c-7 69 -19 95 -56 124 -14 11 -23 25 -19
31 11 17 40 11 63 -12z m-608 -3 c0 -3 -10 -19 -21 -35 -24 -31 -30 -123 -11
-157 8 -13 9 0 5 44 -6 69 7 115 40 138 14 10 25 11 39 4 17 -9 17 -12 -10
-34 -16 -14 -34 -37 -40 -52 -14 -36 -22 -134 -10 -127 4 3 8 26 8 52 0 58 26
113 62 130 29 13 58 7 58 -13 0 -7 7 -18 15 -25 8 -7 15 -21 15 -31 0 -14 -7
-19 -29 -19 -42 0 -77 -33 -91 -87 -8 -27 -15 -41 -17 -31 -2 9 1 26 6 37 6
11 11 31 11 45 0 28 44 86 66 86 8 0 14 4 14 9 0 17 -40 -1 -60 -27 -11 -13
-25 -43 -30 -66 -6 -22 -15 -49 -21 -59 -5 -10 -6 -23 -2 -30 4 -8 1 -7 -10 1
-9 8 -19 22 -22 33 -4 11 -10 17 -15 14 -13 -8 -70 95 -70 126 0 23 16 49 30
49 3 0 4 -18 2 -41 -3 -23 3 -59 13 -85 22 -57 30 -52 10 6 -29 82 -10 150 41
150 13 0 24 -2 24 -5z m552 -17 c31 -25 58 -83 58 -126 0 -24 4 -52 10 -62 8
-15 6 -18 -8 -15 -13 2 -16 10 -14 35 8 77 -55 162 -108 145 -20 -6 -28 13
-13 28 11 11 58 8 75 -5z m118 -10 c28 -30 26 -84 -6 -144 -23 -44 -24 -47 -5
-30 11 10 27 40 35 65 l14 46 -1 -74 0 -73 -33 -14 c-41 -17 -77 -18 -72 -2 2
6 10 14 18 16 8 3 10 0 5 -8 -11 -17 48 15 66 36 13 16 12 16 -8 6 -12 -7 -25
-17 -28 -22 -10 -16 -22 -12 -21 8 1 9 8 34 15 56 12 35 11 75 -5 134 -8 28 0
28 26 0z m-114 -49 c13 -15 20 -42 24 -89 3 -38 2 -66 -2 -64 -4 3 -12 -5 -18
-16 -6 -11 -15 -20 -20 -20 -4 0 1 17 12 38 26 46 19 84 -18 108 -19 13 -30
15 -48 6 -28 -12 -36 -7 -36 23 0 30 8 35 50 35 25 0 43 -7 56 -21z m-21 -64
c29 -28 30 -34 11 -79 -12 -30 -62 -86 -76 -86 -4 0 -6 15 -7 33 -1 30 2 33
22 29 17 -3 28 3 40 22 17 25 17 28 0 46 -14 15 -22 17 -37 9 -11 -6 -18 -18
-16 -27 4 -21 29 -23 36 -3 3 10 0 12 -12 8 -10 -4 -15 -3 -11 3 12 20 35 10
35 -14 0 -30 -14 -40 -45 -32 -44 11 -46 83 -3 104 33 15 36 15 63 -13z m-380
-5 c4 -6 4 -17 1 -25 -4 -12 -10 -13 -30 -4 -20 10 -30 9 -51 -5 -14 -9 -25
-21 -25 -27 0 -6 7 -3 16 5 29 29 88 14 103 -27 19 -51 -33 -108 -67 -73 -15
14 -15 17 2 29 13 10 15 16 8 21 -17 10 -32 -2 -32 -24 0 -28 30 -52 57 -47
14 3 23 -1 23 -9 0 -7 5 -16 12 -20 7 -5 8 -3 4 5 -5 7 -5 29 -1 49 l7 36 18
-24 c16 -22 17 -25 3 -36 -12 -8 -13 -13 -5 -18 7 -4 12 -2 12 3 0 6 5 11 11
11 21 0 3 -34 -22 -40 -33 -9 -101 22 -134 62 -23 28 -26 46 -16 121 5 34 90
63 106 37z"/>
<path d="M586 1186 c21 -15 30 -14 19 3 -3 6 -14 11 -23 11 -13 0 -13 -2 4
-14z"/>
<path d="M2095 2156 c-111 -35 -222 -127 -281 -232 -97 -173 -106 -450 -20
-627 39 -82 114 -171 183 -218 73 -51 142 -69 262 -69 96 0 112 3 166 29 120
56 199 182 230 364 4 27 2 37 -7 37 -9 0 -18 -25 -26 -67 -15 -81 -68 -197
-108 -237 -60 -60 -161 -83 -223 -52 -107 56 -169 222 -178 472 -10 284 47
497 147 549 61 32 140 13 198 -46 52 -52 82 -120 137 -301 14 -49 30 -88 36
-88 13 0 12 487 -1 495 -11 7 -16 -3 -25 -57 -6 -36 -27 -68 -45 -68 -5 0 -39
21 -77 47 -107 73 -135 83 -238 82 -49 0 -108 -6 -130 -13z m93 -28 c7 -7 12
-19 12 -27 0 -11 -4 -11 -20 4 -23 21 -50 13 -50 -15 0 -26 16 -26 23 1 3 12
10 18 16 14 17 -10 13 -30 -10 -51 -20 -18 -22 -18 -51 -1 -20 11 -28 13 -26
5 3 -7 19 -18 37 -24 28 -9 30 -12 17 -23 -17 -14 -56 1 -56 21 0 6 -3 8 -7 5
-8 -9 27 -47 44 -47 18 0 16 -19 -3 -27 -9 -3 -24 3 -37 15 -19 20 -20 25 -8
76 13 61 38 86 81 86 14 0 31 -5 38 -12z m-151 -43 c-4 -8 -2 -17 2 -20 5 -3
9 -22 9 -42 0 -26 6 -42 22 -55 23 -19 21 -48 -3 -48 -29 0 -40 29 -34 85 4
43 2 56 -11 67 -9 7 -14 9 -10 4 3 -4 -4 -28 -18 -53 -13 -25 -24 -61 -24 -79
0 -36 -18 -45 -39 -20 -15 18 8 78 47 121 l27 30 -34 -30 c-18 -16 -40 -44
-47 -62 -8 -19 -19 -30 -27 -27 -19 7 -47 -80 -47 -144 0 -94 45 -152 119
-152 64 0 107 104 61 150 -25 25 -72 26 -94 1 -35 -38 4 -105 40 -70 11 11 12
19 5 23 -6 4 -11 2 -11 -3 0 -6 -4 -11 -10 -11 -13 0 -13 27 1 36 15 9 43 -21
36 -40 -3 -8 -18 -18 -33 -22 -21 -6 -31 -2 -46 16 -46 57 42 128 112 90 30
-16 44 -72 27 -112 -23 -54 -49 -71 -102 -66 -44 3 -46 2 -40 -20 11 -46 -40
-112 -87 -112 -38 0 -62 66 -33 90 21 18 65 4 65 -20 0 -20 -17 -36 -28 -25
-3 3 0 10 8 15 20 12 -2 35 -25 27 -42 -17 -14 -84 29 -71 58 16 74 92 31 148
-35 46 -50 125 -35 184 21 86 68 149 154 206 45 30 50 31 43 11z m-19 -71 c-6
-24 -6 -45 1 -66 14 -40 14 -38 -9 -38 -30 0 -35 41 -11 94 24 55 33 60 19 10z
m-34 -495 c33 -15 52 -60 36 -88 -21 -40 -87 -18 -78 26 4 23 42 24 46 1 2
-10 -1 -18 -7 -18 -6 0 -11 8 -11 17 0 12 -3 14 -10 7 -17 -17 0 -45 24 -42
17 2 21 10 21 38 0 29 -5 37 -29 49 -42 20 -102 -2 -133 -48 -26 -38 -35 -147
-11 -123 20 20 28 14 28 -25 0 -20 10 -56 21 -80 28 -57 36 -50 9 8 -28 62
-26 110 5 139 33 31 52 16 30 -26 -8 -16 -15 -47 -15 -69 0 -43 36 -133 48
-121 4 4 5 34 4 66 -4 66 15 115 53 132 25 11 55 5 55 -11 0 -5 -11 -12 -25
-15 -52 -13 -86 -129 -55 -187 7 -13 7 -19 0 -19 -5 0 -10 7 -10 15 0 8 -5 15
-11 15 -6 0 -8 -8 -5 -17 3 -10 -6 -5 -21 12 -15 17 -30 29 -34 28 -11 -3 -57
61 -79 109 -24 52 -26 128 -5 169 30 57 102 83 159 58z m20 -137 c2 -4 -6 -18
-19 -31 -29 -26 -39 -74 -33 -139 l5 -47 -15 35 c-22 48 -21 129 1 163 16 26
50 36 61 19z m96 -61 c0 -5 3 -16 6 -25 5 -12 0 -16 -21 -16 -16 0 -38 -12
-57 -30 -25 -25 -29 -35 -23 -63 5 -27 4 -29 -6 -13 -19 31 -5 107 26 133 26
23 75 32 75 14z m4 -57 c9 -3 16 -15 16 -26 0 -17 -4 -19 -26 -14 -32 8 -60 0
-68 -19 -5 -13 -2 -13 18 0 52 34 120 -27 97 -88 -12 -31 -50 -37 -71 -12 -10
12 -9 15 5 15 9 0 15 6 13 13 -7 18 -32 14 -36 -6 -6 -30 18 -49 55 -45 22 3
33 0 33 -8 0 -7 4 -16 10 -19 6 -4 7 5 4 24 -3 16 -2 37 4 47 9 16 11 15 22
-6 10 -18 9 -24 -1 -31 -7 -4 -10 -12 -5 -16 5 -4 11 -2 13 5 8 21 25 13 21
-10 -4 -31 -57 -33 -121 -6 -55 24 -75 54 -73 113 1 45 12 67 41 83 24 13 28
14 49 6z"/>
<path d="M2054 1178 c-5 -8 -2 -9 9 -5 9 3 23 -1 32 -9 8 -9 15 -11 15 -5 0 9
-31 31 -44 31 -3 0 -8 -5 -12 -12z"/>
<path d="M1496 1139 c-55 -43 -23 -129 49 -129 46 0 75 29 75 74 0 39 -37 76
-75 76 -12 0 -34 -9 -49 -21z"/>
</g>
</svg>
